<svg xmlns="http://www.w3.org/2000/svg" xmlns:xlink="http://www.w3.org/1999/xlink" zoomAndPan="magnify" preserveAspectRatio="xMidYMid meet" version="1.0" viewBox="2.02 70.6 371.65 189.34"><defs><g/><clipPath id="a3cc4f8d5a"><path d="M 74 132 L 373 132 L 373 190 L 74 190 Z M 74 132 " clip-rule="nonzero"/></clipPath><clipPath id="142de54f92"><path d="M 73.832031 188.339844 L 367.789062 114.859375 L 373.609375 138.144531 L 79.652344 211.621094 Z M 73.832031 188.339844 " clip-rule="nonzero"/></clipPath><clipPath id="56adabdeed"><path d="M 79.710938 211.863281 L 373.667969 138.382812 L 367.847656 115.101562 L 73.890625 188.578125 Z M 79.710938 211.863281 " clip-rule="nonzero"/></clipPath><clipPath id="cd1f30a2e6"><path d="M 79.710938 211.863281 L 373.667969 138.382812 L 367.847656 115.101562 L 73.890625 188.578125 Z M 79.710938 211.863281 " clip-rule="nonzero"/></clipPath><clipPath id="3230e96869"><path d="M 140 227.605469 L 289.757812 227.605469 L 289.757812 241.855469 L 140 241.855469 Z M 140 227.605469 " clip-rule="nonzero"/></clipPath></defs><g clip-path="url(#a3cc4f8d5a)"><g clip-path="url(#142de54f92)"><g clip-path="url(#56adabdeed)"><g clip-path="url(#cd1f30a2e6)"><path fill="#000000" d="M 371.644531 136.152344 C 353.449219 143.351562 334.035156 147.785156 314.796875 151.949219 C 295.78125 156.058594 276.738281 160.039062 257.679688 163.863281 C 238.648438 167.679688 219.585938 171.320312 200.496094 174.554688 C 181.171875 177.828125 161.839844 180.703125 142.511719 183.054688 C 122.558594 185.480469 102.597656 187.15625 82.773438 188.503906 C 80.070312 188.6875 77.359375 188.914062 74.664062 189.082031 C 74.015625 189.121094 75.539062 188.203125 76.019531 188.164062 C 78.777344 187.949219 81.527344 187.804688 84.28125 187.644531 C 100.398438 186.519531 116.582031 184.761719 132.820312 182.578125 C 152.148438 179.980469 171.554688 176.828125 190.863281 173.414062 C 210.246094 169.992188 229.605469 166.246094 248.933594 162.304688 C 268.152344 158.382812 287.34375 154.261719 306.523438 150.089844 C 323.945312 146.300781 341.503906 142.609375 358.445312 137.105469 C 357.292969 137.195312 356.140625 137.28125 354.992188 137.363281 C 348.082031 137.859375 340.996094 138.941406 334.054688 140.042969 C 321.820312 141.988281 309.585938 144.226562 297.375 146.535156 C 297.152344 146.574219 297.613281 145.914062 297.925781 145.851562 C 309.65625 143.496094 321.40625 141.441406 333.167969 139.558594 C 339.183594 138.59375 345.289062 137.683594 351.277344 136.429688 C 354.191406 135.820312 357.105469 135.222656 360.03125 134.710938 C 361.648438 134.429688 363.269531 134.152344 364.890625 133.882812 C 366.769531 133.566406 368.640625 133.070312 370.523438 132.804688 C 371.933594 132.605469 372.984375 135.621094 371.644531 136.152344 " fill-opacity="1" fill-rule="nonzero"/></g></g></g></g><g fill="#231f20" fill-opacity="1"><g transform="translate(2.015229, 203.196512)"><g><path d="M 131.265625 21.21875 C 131.460938 21.601562 131.582031 22.007812 131.625 22.4375 C 131.707031 23.039062 131.453125 23.441406 130.859375 23.640625 C 129.003906 24.304688 127.597656 23.8125 126.640625 22.15625 C 125.972656 20.96875 125.359375 19.738281 124.796875 18.46875 C 123.503906 15.425781 122.351562 12.328125 121.34375 9.171875 C 120.332031 6.015625 119.394531 2.847656 118.53125 -0.328125 C 117.769531 -3.128906 117.035156 -5.929688 116.328125 -8.734375 C 115.859375 -10.710938 115.363281 -12.707031 114.84375 -14.71875 C 114.601562 -15.707031 114.316406 -16.320312 113.984375 -16.5625 C 113.648438 -16.800781 112.988281 -16.894531 112 -16.84375 C 108.757812 -16.65625 105.535156 -16.460938 102.328125 -16.265625 C 98.941406 -16.066406 95.566406 -15.90625 92.203125 -15.78125 C 91.359375 -15.71875 90.734375 -15.472656 90.328125 -15.046875 C 89.921875 -14.628906 89.617188 -14.046875 89.421875 -13.296875 C 87.347656 -5.460938 84.910156 2.273438 82.109375 9.921875 C 80.210938 14.953125 78.125 19.894531 75.84375 24.75 C 73.570312 29.613281 70.960938 34.300781 68.015625 38.8125 C 65.359375 42.84375 62.207031 46.441406 58.5625 49.609375 C 54.945312 52.796875 50.84375 54.929688 46.25 56.015625 C 39.925781 57.484375 33.921875 56.707031 28.234375 53.6875 C 24.828125 51.789062 21.816406 49.421875 19.203125 46.578125 C 10.472656 37.085938 4.382812 26.125 0.9375 13.6875 C 0.3125 11.414062 0 9.097656 0 6.734375 L 0 6.5625 C 0 6.09375 0.0195312 5.597656 0.0625 5.078125 C 0.40625 -0.421875 2.992188 -4.53125 7.828125 -7.25 C 9.679688 -8.238281 11.585938 -9.03125 13.546875 -9.625 C 15.515625 -10.21875 17.519531 -10.65625 19.5625 -10.9375 C 25.6875 -11.882812 31.832031 -12.710938 38 -13.421875 C 47.8125 -14.523438 57.65625 -15.550781 67.53125 -16.5 C 70.976562 -16.820312 74.414062 -17.097656 77.84375 -17.328125 C 79.5 -17.421875 81.140625 -17.539062 82.765625 -17.6875 C 83.878906 -17.726562 84.628906 -17.878906 85.015625 -18.140625 C 85.410156 -18.398438 85.726562 -19.054688 85.96875 -20.109375 C 86.570312 -22.335938 87.160156 -24.59375 87.734375 -26.875 C 91.703125 -44.320312 94.851562 -61.914062 97.1875 -79.65625 C 98.757812 -90.71875 100 -101.800781 100.90625 -112.90625 C 101.144531 -116.394531 101.304688 -119.894531 101.390625 -123.40625 C 101.429688 -124.988281 101.503906 -126.554688 101.609375 -128.109375 C 101.609375 -128.335938 101.609375 -128.570312 101.609375 -128.8125 C 101.609375 -129.289062 101.632812 -129.742188 101.6875 -130.171875 C 101.726562 -131.078125 101.945312 -131.707031 102.34375 -132.0625 C 102.738281 -132.414062 103.390625 -132.59375 104.296875 -132.59375 C 105.203125 -132.632812 105.851562 -132.476562 106.25 -132.125 C 106.65625 -131.769531 106.859375 -131.117188 106.859375 -130.171875 C 106.859375 -127.003906 106.859375 -123.738281 106.859375 -120.375 C 106.859375 -118.945312 106.859375 -117.488281 106.859375 -116 C 107.046875 -106.945312 107.550781 -97.65625 108.375 -88.125 C 109.257812 -77.457031 110.445312 -66.804688 111.9375 -56.171875 C 113.445312 -45.140625 115.429688 -34.1875 117.890625 -23.3125 C 117.992188 -22.800781 118.109375 -22.304688 118.234375 -21.828125 C 118.347656 -21.523438 118.445312 -21.210938 118.53125 -20.890625 C 118.8125 -19.984375 119.425781 -19.585938 120.375 -19.703125 C 122.425781 -19.742188 124.492188 -19.785156 126.578125 -19.828125 C 127.578125 -19.910156 128.503906 -19.71875 129.359375 -19.25 C 129.679688 -19.007812 129.84375 -18.648438 129.84375 -18.171875 C 129.800781 -17.929688 129.691406 -17.753906 129.515625 -17.640625 C 129.347656 -17.523438 129.179688 -17.46875 129.015625 -17.46875 C 127.992188 -17.425781 126.96875 -17.40625 125.9375 -17.40625 C 125.457031 -17.351562 124.984375 -17.328125 124.515625 -17.328125 C 124.234375 -17.328125 123.972656 -17.328125 123.734375 -17.328125 C 122.867188 -17.328125 122.039062 -17.304688 121.25 -17.265625 C 120.019531 -17.160156 119.546875 -16.492188 119.828125 -15.265625 C 120.015625 -14.460938 120.226562 -13.65625 120.46875 -12.84375 C 121.175781 -9.625 121.972656 -6.453125 122.859375 -3.328125 C 124.003906 0.847656 125.238281 5 126.5625 9.125 C 127.894531 13.257812 129.460938 17.289062 131.265625 21.21875 Z M 83.953125 -12.78125 C 84.234375 -13.726562 84.265625 -14.359375 84.046875 -14.671875 C 83.835938 -14.984375 83.257812 -15.082031 82.3125 -14.96875 C 78.34375 -14.6875 74.382812 -14.332031 70.4375 -13.90625 C 69.6875 -13.863281 68.929688 -13.800781 68.171875 -13.71875 C 59.335938 -12.851562 50.507812 -11.925781 41.6875 -10.9375 C 35.15625 -10.175781 28.613281 -9.320312 22.0625 -8.375 C 19.0625 -7.988281 16.140625 -7.203125 13.296875 -6.015625 C 7.710938 -3.679688 4.960938 0.507812 5.046875 6.5625 C 5.085938 8.613281 5.320312 10.648438 5.75 12.671875 C 6.375 15.242188 7.171875 17.738281 8.140625 20.15625 C 9.117188 22.582031 10.203125 24.953125 11.390625 27.265625 C 14.515625 33.773438 18.523438 39.660156 23.421875 44.921875 C 25.984375 47.722656 28.890625 50.019531 32.140625 51.8125 C 37.703125 54.71875 43.234375 54.675781 48.734375 51.6875 C 52.054688 49.9375 54.976562 47.660156 57.5 44.859375 C 61.289062 40.628906 64.515625 36.023438 67.171875 31.046875 C 72.710938 20.566406 77.21875 9.632812 80.6875 -1.75 C 81.832031 -5.414062 82.921875 -9.09375 83.953125 -12.78125 Z M 113.125 -19.703125 C 113.164062 -19.742188 113.1875 -19.785156 113.1875 -19.828125 C 113.238281 -19.867188 113.28125 -19.914062 113.3125 -19.96875 C 113.34375 -20.019531 113.328125 -20.046875 113.265625 -20.046875 C 109.054688 -40.054688 105.972656 -60.257812 104.015625 -80.65625 C 103.921875 -81.320312 103.800781 -81.988281 103.65625 -82.65625 C 103.613281 -82.789062 103.523438 -82.957031 103.390625 -83.15625 C 103.285156 -83.238281 103.191406 -83.375 103.109375 -83.5625 C 102.867188 -81.863281 102.609375 -80.160156 102.328125 -78.453125 C 101.785156 -74.660156 101.210938 -70.890625 100.609375 -67.140625 C 99.796875 -61.679688 98.890625 -56.25 97.890625 -50.84375 C 97.335938 -47.800781 96.75 -44.769531 96.125 -41.75 C 95.644531 -39.425781 95.191406 -37.078125 94.765625 -34.703125 C 94.285156 -32.367188 93.742188 -30.0625 93.140625 -27.78125 C 92.390625 -24.800781 91.742188 -21.789062 91.203125 -18.75 C 92.453125 -18.601562 94.519531 -18.566406 97.40625 -18.640625 C 100.300781 -18.710938 103.25 -18.847656 106.25 -19.046875 C 109.257812 -19.242188 111.550781 -19.460938 113.125 -19.703125 Z M 113.125 -19.703125 "/></g></g></g><g fill="#231f20" fill-opacity="1"><g transform="translate(134.612027, 203.196512)"><g><path d="M 26.734375 -12.4375 C 28.398438 -15.070312 29.390625 -16.742188 29.703125 -17.453125 C 30.015625 -18.171875 30.257812 -18.140625 30.4375 -17.359375 C 30.625 -16.585938 30.09375 -14.835938 28.84375 -12.109375 C 27.59375 -9.378906 26.039062 -7.273438 24.1875 -5.796875 C 22.332031 -4.328125 20.601562 -3.785156 19 -4.171875 C 17.394531 -4.554688 16.242188 -5.671875 15.546875 -7.515625 C 14.859375 -9.359375 14.65625 -11.679688 14.9375 -14.484375 C 14.9375 -14.523438 14.957031 -14.644531 15 -14.84375 C 15.050781 -15.320312 15.132812 -16.023438 15.25 -16.953125 C 15.363281 -17.878906 15.445312 -18.835938 15.5 -19.828125 C 15.5625 -20.816406 15.53125 -21.632812 15.40625 -22.28125 C 15.289062 -22.925781 14.992188 -23.15625 14.515625 -22.96875 C 13.378906 -22.34375 12.265625 -21.117188 11.171875 -19.296875 C 10.085938 -17.472656 9.101562 -15.5625 8.21875 -13.5625 C 7.332031 -11.570312 6.707031 -9.960938 6.34375 -8.734375 C 6.1875 -8.347656 6.046875 -7.9375 5.921875 -7.5 C 5.722656 -6.9375 5.503906 -6.378906 5.265625 -5.828125 C 4.640625 -4.203125 3.550781 -3.578125 2 -3.953125 C 1.144531 -4.140625 0.640625 -4.664062 0.484375 -5.53125 C 0.441406 -6.195312 0.421875 -6.832031 0.421875 -7.4375 C 0.421875 -7.820312 0.398438 -8.175781 0.359375 -8.5 C 0.265625 -13.289062 0.144531 -18.113281 0 -22.96875 C 0.0390625 -23.519531 0.285156 -23.90625 0.734375 -24.125 C 1.191406 -24.34375 1.734375 -24.453125 2.359375 -24.453125 C 2.835938 -24.453125 3.285156 -24.320312 3.703125 -24.0625 C 4.117188 -23.800781 4.382812 -23.257812 4.5 -22.4375 C 4.539062 -22.164062 4.5625 -21.890625 4.5625 -21.609375 C 4.601562 -21.453125 4.625 -21.3125 4.625 -21.1875 C 4.707031 -20.519531 4.75 -19.945312 4.75 -19.46875 C 4.75 -18.757812 4.796875 -18.273438 4.890625 -18.015625 C 4.992188 -17.753906 5.203125 -17.765625 5.515625 -18.046875 C 5.828125 -18.328125 6.335938 -18.992188 7.046875 -20.046875 C 8.273438 -21.941406 9.796875 -23.550781 11.609375 -24.875 C 13.265625 -26.0625 15.085938 -26.554688 17.078125 -26.359375 C 18.773438 -26.179688 19.914062 -25.285156 20.5 -23.671875 C 20.738281 -22.847656 20.859375 -22.019531 20.859375 -21.1875 C 20.859375 -20.363281 20.804688 -19.53125 20.703125 -18.6875 C 20.660156 -17.832031 20.59375 -16.953125 20.5 -16.046875 C 20.4375 -15.765625 20.382812 -15.484375 20.34375 -15.203125 C 20.0625 -12.117188 20.15625 -10.050781 20.625 -9 C 21.101562 -7.957031 21.828125 -7.613281 22.796875 -7.96875 C 23.765625 -8.320312 25.078125 -9.8125 26.734375 -12.4375 Z M 26.734375 -12.4375 "/></g></g></g><g fill="#231f20" fill-opacity="1"><g transform="translate(163.071828, 203.196512)"><g><path d="M 26.734375 -12.4375 C 28.398438 -15.070312 29.390625 -16.742188 29.703125 -17.453125 C 30.015625 -18.171875 30.257812 -18.140625 30.4375 -17.359375 C 30.625 -16.585938 30.09375 -14.835938 28.84375 -12.109375 C 27.59375 -9.378906 26.039062 -7.273438 24.1875 -5.796875 C 22.332031 -4.328125 20.601562 -3.785156 19 -4.171875 C 17.394531 -4.554688 16.242188 -5.671875 15.546875 -7.515625 C 14.859375 -9.359375 14.65625 -11.679688 14.9375 -14.484375 C 14.9375 -14.523438 14.957031 -14.644531 15 -14.84375 C 15.050781 -15.320312 15.132812 -16.023438 15.25 -16.953125 C 15.363281 -17.878906 15.445312 -18.835938 15.5 -19.828125 C 15.5625 -20.816406 15.53125 -21.632812 15.40625 -22.28125 C 15.289062 -22.925781 14.992188 -23.15625 14.515625 -22.96875 C 13.378906 -22.34375 12.265625 -21.117188 11.171875 -19.296875 C 10.085938 -17.472656 9.101562 -15.5625 8.21875 -13.5625 C 7.332031 -11.570312 6.707031 -9.960938 6.34375 -8.734375 C 6.1875 -8.347656 6.046875 -7.9375 5.921875 -7.5 C 5.722656 -6.9375 5.503906 -6.378906 5.265625 -5.828125 C 4.640625 -4.203125 3.550781 -3.578125 2 -3.953125 C 1.144531 -4.140625 0.640625 -4.664062 0.484375 -5.53125 C 0.441406 -6.195312 0.421875 -6.832031 0.421875 -7.4375 C 0.421875 -7.820312 0.398438 -8.175781 0.359375 -8.5 C 0.265625 -13.289062 0.144531 -18.113281 0 -22.96875 C 0.0390625 -23.519531 0.285156 -23.90625 0.734375 -24.125 C 1.191406 -24.34375 1.734375 -24.453125 2.359375 -24.453125 C 2.835938 -24.453125 3.285156 -24.320312 3.703125 -24.0625 C 4.117188 -23.800781 4.382812 -23.257812 4.5 -22.4375 C 4.539062 -22.164062 4.5625 -21.890625 4.5625 -21.609375 C 4.601562 -21.453125 4.625 -21.3125 4.625 -21.1875 C 4.707031 -20.519531 4.75 -19.945312 4.75 -19.46875 C 4.75 -18.757812 4.796875 -18.273438 4.890625 -18.015625 C 4.992188 -17.753906 5.203125 -17.765625 5.515625 -18.046875 C 5.828125 -18.328125 6.335938 -18.992188 7.046875 -20.046875 C 8.273438 -21.941406 9.796875 -23.550781 11.609375 -24.875 C 13.265625 -26.0625 15.085938 -26.554688 17.078125 -26.359375 C 18.773438 -26.179688 19.914062 -25.285156 20.5 -23.671875 C 20.738281 -22.847656 20.859375 -22.019531 20.859375 -21.1875 C 20.859375 -20.363281 20.804688 -19.53125 20.703125 -18.6875 C 20.660156 -17.832031 20.59375 -16.953125 20.5 -16.046875 C 20.4375 -15.765625 20.382812 -15.484375 20.34375 -15.203125 C 20.0625 -12.117188 20.15625 -10.050781 20.625 -9 C 21.101562 -7.957031 21.828125 -7.613281 22.796875 -7.96875 C 23.765625 -8.320312 25.078125 -9.8125 26.734375 -12.4375 Z M 26.734375 -12.4375 "/></g></g></g><g fill="#231f20" fill-opacity="1"><g transform="translate(191.531629, 203.196512)"><g><path d="M 36.59375 -16.625 C 36 -14.8125 34.820312 -12.734375 33.0625 -10.390625 C 31.3125 -8.054688 29.117188 -6.554688 26.484375 -5.890625 C 23.859375 -5.222656 21.582031 -5.3125 19.65625 -6.15625 C 17.738281 -7.007812 16.6875 -9.289062 16.5 -13 C 14.320312 -8.769531 12.242188 -6.0625 10.265625 -4.875 C 8.296875 -3.695312 6.242188 -3.25 4.109375 -3.53125 C 1.691406 -3.914062 0.0625 -4.851562 -0.78125 -6.34375 C -1.632812 -7.832031 -1.921875 -9.550781 -1.640625 -11.5 C -1.367188 -13.445312 -0.78125 -15.316406 0.125 -17.109375 C 0.84375 -18.441406 1.832031 -19.679688 3.09375 -20.828125 C 4.351562 -21.972656 5.671875 -22.867188 7.046875 -23.515625 C 8.753906 -24.378906 10.46875 -24.785156 12.1875 -24.734375 C 13.914062 -24.691406 15.757812 -24.125 17.71875 -23.03125 C 17.757812 -22.988281 17.78125 -23.03125 17.78125 -23.15625 C 17.78125 -23.351562 17.828125 -23.597656 17.921875 -23.890625 C 18.023438 -24.179688 18.195312 -24.410156 18.4375 -24.578125 C 19.082031 -25.054688 19.847656 -25.296875 20.734375 -25.296875 C 21.617188 -25.296875 22.296875 -24.851562 22.765625 -23.96875 C 22.847656 -22.820312 22.726562 -21.363281 22.40625 -19.59375 C 21.695312 -15.71875 21.695312 -12.925781 22.40625 -11.21875 C 23.125 -9.519531 24.378906 -8.726562 26.171875 -8.84375 C 27.972656 -8.957031 30.304688 -10.734375 33.171875 -14.171875 C 36.046875 -17.617188 37.1875 -18.4375 36.59375 -16.625 Z M 4.75 -7.5 C 5.738281 -6.789062 6.875 -6.890625 8.15625 -7.796875 C 9.445312 -8.703125 10.679688 -9.984375 11.859375 -11.640625 C 13.046875 -13.304688 14.046875 -14.96875 14.859375 -16.625 C 15.671875 -18.28125 16.117188 -19.507812 16.203125 -20.3125 C 13.785156 -21.601562 11.710938 -21.820312 9.984375 -20.96875 C 8.265625 -20.125 6.890625 -18.734375 5.859375 -16.796875 C 4.835938 -14.867188 4.226562 -12.992188 4.03125 -11.171875 C 3.84375 -9.347656 4.082031 -8.125 4.75 -7.5 Z M 4.75 -7.5 "/></g></g></g><g fill="#231f20" fill-opacity="1"><g transform="translate(225.812753, 203.196512)"><g><path d="M 31.46875 -15.203125 C 28.707031 -13.535156 25.546875 -12.445312 21.984375 -11.9375 C 21.273438 -10.550781 20.566406 -9.363281 19.859375 -8.375 C 18.046875 -6.238281 15.953125 -4.921875 13.578125 -4.421875 C 11.210938 -3.929688 9.082031 -4.0625 7.1875 -4.8125 C 7.132812 -4.863281 7.085938 -4.890625 7.046875 -4.890625 C 6.578125 -5.117188 6.101562 -5.28125 5.625 -5.375 C 5.15625 -5.476562 4.660156 -5.390625 4.140625 -5.109375 C 3.859375 -4.960938 3.523438 -4.910156 3.140625 -4.953125 C 3.046875 -4.953125 2.96875 -4.953125 2.90625 -4.953125 C 1.207031 -4.953125 0.335938 -5.800781 0.296875 -7.5 C 0.242188 -9.226562 0.21875 -10.921875 0.21875 -12.578125 C 0.175781 -14.609375 0.101562 -16.625 0 -18.625 C -0.28125 -26.34375 -0.347656 -34.09375 -0.203125 -41.875 C -0.0664062 -49.664062 0.140625 -57.453125 0.421875 -65.234375 C 0.484375 -65.984375 0.515625 -66.738281 0.515625 -67.5 C 0.554688 -69.238281 0.753906 -71.410156 1.109375 -74.015625 C 1.472656 -76.628906 1.984375 -79.140625 2.640625 -81.546875 C 3.296875 -83.953125 4.097656 -85.710938 5.046875 -86.828125 C 5.910156 -88.085938 6.992188 -88.878906 8.296875 -89.203125 C 9.597656 -89.523438 10.863281 -89.472656 12.09375 -89.046875 C 13.320312 -88.628906 14.269531 -87.945312 14.9375 -87 C 16.363281 -84.757812 17.125 -81.585938 17.21875 -77.484375 C 17.3125 -73.390625 16.953125 -68.820312 16.140625 -63.78125 C 15.335938 -58.75 14.296875 -53.710938 13.015625 -48.671875 C 11.734375 -43.628906 10.40625 -39.039062 9.03125 -34.90625 C 7.664062 -30.78125 6.4375 -27.578125 5.34375 -25.296875 C 7.238281 -26.390625 8.765625 -27.078125 9.921875 -27.359375 C 11.085938 -27.640625 12.425781 -27.660156 13.9375 -27.421875 C 19.113281 -26.773438 22.132812 -23.882812 23 -18.75 C 23 -18.519531 23 -18.304688 23 -18.109375 C 23.039062 -17.910156 23.0625 -17.726562 23.0625 -17.5625 C 23.144531 -16.851562 23.242188 -16.28125 23.359375 -15.84375 C 23.484375 -15.414062 24.695312 -15.546875 27 -16.234375 C 29.3125 -16.921875 31 -17.726562 32.0625 -18.65625 C 33.132812 -19.582031 33.8125 -19.972656 34.09375 -19.828125 C 35.1875 -18.640625 34.3125 -17.097656 31.46875 -15.203125 Z M 4.78125 -31.625 C 4.957031 -31.78125 5.519531 -33.65625 6.46875 -37.25 C 7.414062 -40.851562 8.421875 -45.3125 9.484375 -50.625 C 10.554688 -55.945312 11.414062 -61.273438 12.0625 -66.609375 C 12.707031 -71.941406 12.816406 -76.429688 12.390625 -80.078125 C 12.191406 -82.035156 11.878906 -83.617188 11.453125 -84.828125 C 11.035156 -86.035156 10.539062 -86.453125 9.96875 -86.078125 C 9.40625 -85.703125 8.8125 -84.15625 8.1875 -81.4375 C 7.238281 -77.40625 6.5625 -71.914062 6.15625 -64.96875 C 5.757812 -58.03125 5.460938 -51.1875 5.265625 -44.4375 C 5.117188 -39.257812 4.957031 -34.988281 4.78125 -31.625 Z M 10.375 -8.4375 C 10.207031 -7.8125 10.367188 -7.488281 10.859375 -7.46875 C 11.359375 -7.445312 11.992188 -7.613281 12.765625 -7.96875 C 13.546875 -8.320312 14.234375 -8.785156 14.828125 -9.359375 C 15.421875 -9.929688 15.695312 -10.53125 15.65625 -11.15625 C 15.65625 -11.195312 15.617188 -11.238281 15.546875 -11.28125 C 15.484375 -11.332031 15.421875 -11.359375 15.359375 -11.359375 C 14.515625 -11.398438 13.738281 -11.226562 13.03125 -10.84375 C 12.320312 -10.46875 11.65625 -10 11.03125 -9.4375 C 10.75 -9.15625 10.53125 -8.820312 10.375 -8.4375 Z M 17.59375 -16.5625 C 17.675781 -18.21875 17.265625 -19.804688 16.359375 -21.328125 C 15.453125 -22.847656 14.316406 -23.84375 12.953125 -24.3125 C 11.585938 -24.789062 10.253906 -24.316406 8.953125 -22.890625 C 8.003906 -21.640625 7.378906 -19.984375 7.078125 -17.921875 C 6.773438 -15.867188 6.644531 -13.796875 6.6875 -11.703125 C 8.269531 -12.566406 9.851562 -13.296875 11.4375 -13.890625 C 13.019531 -14.484375 14.660156 -14.878906 16.359375 -15.078125 C 16.753906 -15.117188 17.054688 -15.273438 17.265625 -15.546875 C 17.484375 -15.828125 17.59375 -16.164062 17.59375 -16.5625 Z M 17.59375 -16.5625 "/></g></g></g><g fill="#231f20" fill-opacity="1"><g transform="translate(257.215563, 203.196512)"><g><path d="M 31.171875 -15.625 C 31.648438 -15.90625 32.113281 -16.117188 32.5625 -16.265625 C 33.019531 -16.421875 33.316406 -16.410156 33.453125 -16.234375 C 33.597656 -16.054688 33.410156 -15.671875 32.890625 -15.078125 C 31.273438 -13.222656 29.335938 -11.523438 27.078125 -9.984375 C 24.828125 -8.441406 22.519531 -7.140625 20.15625 -6.078125 C 18.289062 -5.234375 16.328125 -4.5625 14.265625 -4.0625 C 12.210938 -3.570312 10.175781 -3.46875 8.15625 -3.75 C 6.144531 -4.03125 4.3125 -4.925781 2.65625 -6.4375 C 0.132812 -8.757812 -0.910156 -11.601562 -0.484375 -14.96875 C -0.117188 -17.644531 0.914062 -19.914062 2.625 -21.78125 C 4.34375 -23.644531 6.507812 -24.910156 9.125 -25.578125 C 11.300781 -26.054688 13.476562 -26.113281 15.65625 -25.75 C 16.644531 -25.59375 17.550781 -25.253906 18.375 -24.734375 C 19.125 -24.160156 19.535156 -23.484375 19.609375 -22.703125 C 19.691406 -21.929688 19.394531 -21.1875 18.71875 -20.46875 C 17.34375 -19.238281 15.75 -18.503906 13.9375 -18.265625 C 11.914062 -17.921875 9.878906 -17.707031 7.828125 -17.625 C 6.835938 -17.625 6.140625 -17.414062 5.734375 -17 C 5.335938 -16.59375 5.109375 -15.894531 5.046875 -14.90625 C 4.722656 -12.207031 5.582031 -10.007812 7.625 -8.3125 C 8.90625 -7.300781 10.453125 -6.867188 12.265625 -7.015625 C 14.085938 -7.171875 16.023438 -7.660156 18.078125 -8.484375 C 20.128906 -9.316406 22.132812 -10.285156 24.09375 -11.390625 C 26.050781 -12.503906 27.816406 -13.554688 29.390625 -14.546875 C 30.066406 -14.984375 30.660156 -15.34375 31.171875 -15.625 Z M 8.703125 -21.375 C 8.703125 -21.332031 8.671875 -21.3125 8.609375 -21.3125 C 8.515625 -21.226562 8.394531 -21.125 8.25 -21 C 8.113281 -20.882812 7.988281 -20.765625 7.875 -20.640625 C 7.757812 -20.523438 7.703125 -20.445312 7.703125 -20.40625 C 7.742188 -20.257812 8.128906 -20.222656 8.859375 -20.296875 C 9.597656 -20.367188 10.40625 -20.492188 11.28125 -20.671875 C 12.164062 -20.859375 12.90625 -21.109375 13.5 -21.421875 C 14.09375 -21.734375 14.269531 -22.109375 14.03125 -22.546875 C 13.925781 -22.671875 13.789062 -22.78125 13.625 -22.875 C 13.46875 -22.976562 13.289062 -23.050781 13.09375 -23.09375 C 12.226562 -23.09375 11.441406 -22.925781 10.734375 -22.59375 C 10.023438 -22.257812 9.347656 -21.851562 8.703125 -21.375 Z M 8.703125 -21.375 "/></g></g></g><g fill="#231f20" fill-opacity="1"><g transform="translate(288.521344, 203.196512)"><g><path d="M 23.34375 -15.078125 C 23.71875 -15.953125 24.117188 -16.390625 24.546875 -16.390625 C 24.972656 -16.390625 25.113281 -15.953125 24.96875 -15.078125 C 24.257812 -12.867188 23.40625 -10.753906 22.40625 -8.734375 C 21.414062 -6.722656 20.070312 -4.921875 18.375 -3.328125 C 17.070312 -2.035156 15.53125 -1.207031 13.75 -0.84375 C 11.3125 -0.5 9.300781 -0.789062 7.71875 -1.71875 C 6.132812 -2.644531 4.878906 -3.972656 3.953125 -5.703125 C 3.023438 -7.441406 2.332031 -9.335938 1.875 -11.390625 C 1.425781 -13.453125 1.132812 -15.457031 1 -17.40625 C 0.65625 -21.0625 0.398438 -25.875 0.234375 -31.84375 C 0.078125 -37.820312 0.140625 -44.140625 0.421875 -50.796875 C 0.703125 -57.460938 1.351562 -63.640625 2.375 -69.328125 C 3.394531 -75.023438 4.898438 -79.4375 6.890625 -82.5625 C 8.035156 -84.09375 9.363281 -84.867188 10.875 -84.890625 C 12.394531 -84.910156 13.75 -84.210938 14.9375 -82.796875 C 15.738281 -81.691406 16.34375 -80.523438 16.75 -79.296875 C 17.15625 -78.066406 17.425781 -76.816406 17.5625 -75.546875 C 17.988281 -71.171875 17.929688 -66.550781 17.390625 -61.6875 C 16.859375 -56.820312 16.007812 -51.628906 14.84375 -46.109375 C 13.675781 -40.597656 12.285156 -35.738281 10.671875 -31.53125 C 9.054688 -27.320312 7.707031 -23.992188 6.625 -21.546875 C 6.039062 -20.546875 5.828125 -19.046875 5.984375 -17.046875 C 6.179688 -14.867188 6.597656 -12.59375 7.234375 -10.21875 C 7.867188 -7.84375 8.753906 -5.96875 9.890625 -4.59375 C 10.972656 -3.445312 12.179688 -3.085938 13.515625 -3.515625 C 14.859375 -3.953125 16.191406 -4.859375 17.515625 -6.234375 C 18.835938 -7.617188 20.003906 -9.125 21.015625 -10.75 C 22.035156 -12.375 22.8125 -13.816406 23.34375 -15.078125 Z M 6.109375 -48.15625 C 5.984375 -46.726562 5.859375 -44.578125 5.734375 -41.703125 C 5.617188 -38.828125 5.507812 -35.898438 5.40625 -32.921875 C 5.3125 -29.597656 5.210938 -27.007812 5.109375 -25.15625 C 6.160156 -27.53125 7.390625 -30.976562 8.796875 -35.5 C 10.203125 -40.03125 11.476562 -45.367188 12.625 -51.515625 C 13.78125 -57.660156 14.53125 -64.3125 14.875 -71.46875 C 14.675781 -75.65625 14.171875 -78.488281 13.359375 -79.96875 C 12.554688 -81.457031 11.679688 -81.585938 10.734375 -80.359375 C 9.785156 -79.140625 9.03125 -76.554688 8.46875 -72.609375 C 7.613281 -66.078125 6.945312 -59.53125 6.46875 -52.96875 C 6.34375 -51.351562 6.222656 -49.75 6.109375 -48.15625 Z M 6.109375 -48.15625 "/></g></g></g><g fill="#231f20" fill-opacity="1"><g transform="translate(311.515577, 203.196512)"><g><path d="M 23.34375 -15.078125 C 23.71875 -15.953125 24.117188 -16.390625 24.546875 -16.390625 C 24.972656 -16.390625 25.113281 -15.953125 24.96875 -15.078125 C 24.257812 -12.867188 23.40625 -10.753906 22.40625 -8.734375 C 21.414062 -6.722656 20.070312 -4.921875 18.375 -3.328125 C 17.070312 -2.035156 15.53125 -1.207031 13.75 -0.84375 C 11.3125 -0.5 9.300781 -0.789062 7.71875 -1.71875 C 6.132812 -2.644531 4.878906 -3.972656 3.953125 -5.703125 C 3.023438 -7.441406 2.332031 -9.335938 1.875 -11.390625 C 1.425781 -13.453125 1.132812 -15.457031 1 -17.40625 C 0.65625 -21.0625 0.398438 -25.875 0.234375 -31.84375 C 0.078125 -37.820312 0.140625 -44.140625 0.421875 -50.796875 C 0.703125 -57.460938 1.351562 -63.640625 2.375 -69.328125 C 3.394531 -75.023438 4.898438 -79.4375 6.890625 -82.5625 C 8.035156 -84.09375 9.363281 -84.867188 10.875 -84.890625 C 12.394531 -84.910156 13.75 -84.210938 14.9375 -82.796875 C 15.738281 -81.691406 16.34375 -80.523438 16.75 -79.296875 C 17.15625 -78.066406 17.425781 -76.816406 17.5625 -75.546875 C 17.988281 -71.171875 17.929688 -66.550781 17.390625 -61.6875 C 16.859375 -56.820312 16.007812 -51.628906 14.84375 -46.109375 C 13.675781 -40.597656 12.285156 -35.738281 10.671875 -31.53125 C 9.054688 -27.320312 7.707031 -23.992188 6.625 -21.546875 C 6.039062 -20.546875 5.828125 -19.046875 5.984375 -17.046875 C 6.179688 -14.867188 6.597656 -12.59375 7.234375 -10.21875 C 7.867188 -7.84375 8.753906 -5.96875 9.890625 -4.59375 C 10.972656 -3.445312 12.179688 -3.085938 13.515625 -3.515625 C 14.859375 -3.953125 16.191406 -4.859375 17.515625 -6.234375 C 18.835938 -7.617188 20.003906 -9.125 21.015625 -10.75 C 22.035156 -12.375 22.8125 -13.816406 23.34375 -15.078125 Z M 6.109375 -48.15625 C 5.984375 -46.726562 5.859375 -44.578125 5.734375 -41.703125 C 5.617188 -38.828125 5.507812 -35.898438 5.40625 -32.921875 C 5.3125 -29.597656 5.210938 -27.007812 5.109375 -25.15625 C 6.160156 -27.53125 7.390625 -30.976562 8.796875 -35.5 C 10.203125 -40.03125 11.476562 -45.367188 12.625 -51.515625 C 13.78125 -57.660156 14.53125 -64.3125 14.875 -71.46875 C 14.675781 -75.65625 14.171875 -78.488281 13.359375 -79.96875 C 12.554688 -81.457031 11.679688 -81.585938 10.734375 -80.359375 C 9.785156 -79.140625 9.03125 -76.554688 8.46875 -72.609375 C 7.613281 -66.078125 6.945312 -59.53125 6.46875 -52.96875 C 6.34375 -51.351562 6.222656 -49.75 6.109375 -48.15625 Z M 6.109375 -48.15625 "/></g></g></g><g fill="#231f20" fill-opacity="1"><g transform="translate(334.50981, 203.196512)"><g><path d="M 31.171875 -15.625 C 31.648438 -15.90625 32.113281 -16.117188 32.5625 -16.265625 C 33.019531 -16.421875 33.316406 -16.410156 33.453125 -16.234375 C 33.597656 -16.054688 33.410156 -15.671875 32.890625 -15.078125 C 31.273438 -13.222656 29.335938 -11.523438 27.078125 -9.984375 C 24.828125 -8.441406 22.519531 -7.140625 20.15625 -6.078125 C 18.289062 -5.234375 16.328125 -4.5625 14.265625 -4.0625 C 12.210938 -3.570312 10.175781 -3.46875 8.15625 -3.75 C 6.144531 -4.03125 4.3125 -4.925781 2.65625 -6.4375 C 0.132812 -8.757812 -0.910156 -11.601562 -0.484375 -14.96875 C -0.117188 -17.644531 0.914062 -19.914062 2.625 -21.78125 C 4.34375 -23.644531 6.507812 -24.910156 9.125 -25.578125 C 11.300781 -26.054688 13.476562 -26.113281 15.65625 -25.75 C 16.644531 -25.59375 17.550781 -25.253906 18.375 -24.734375 C 19.125 -24.160156 19.535156 -23.484375 19.609375 -22.703125 C 19.691406 -21.929688 19.394531 -21.1875 18.71875 -20.46875 C 17.34375 -19.238281 15.75 -18.503906 13.9375 -18.265625 C 11.914062 -17.921875 9.878906 -17.707031 7.828125 -17.625 C 6.835938 -17.625 6.140625 -17.414062 5.734375 -17 C 5.335938 -16.59375 5.109375 -15.894531 5.046875 -14.90625 C 4.722656 -12.207031 5.582031 -10.007812 7.625 -8.3125 C 8.90625 -7.300781 10.453125 -6.867188 12.265625 -7.015625 C 14.085938 -7.171875 16.023438 -7.660156 18.078125 -8.484375 C 20.128906 -9.316406 22.132812 -10.285156 24.09375 -11.390625 C 26.050781 -12.503906 27.816406 -13.554688 29.390625 -14.546875 C 30.066406 -14.984375 30.660156 -15.34375 31.171875 -15.625 Z M 8.703125 -21.375 C 8.703125 -21.332031 8.671875 -21.3125 8.609375 -21.3125 C 8.515625 -21.226562 8.394531 -21.125 8.25 -21 C 8.113281 -20.882812 7.988281 -20.765625 7.875 -20.640625 C 7.757812 -20.523438 7.703125 -20.445312 7.703125 -20.40625 C 7.742188 -20.257812 8.128906 -20.222656 8.859375 -20.296875 C 9.597656 -20.367188 10.40625 -20.492188 11.28125 -20.671875 C 12.164062 -20.859375 12.90625 -21.109375 13.5 -21.421875 C 14.09375 -21.734375 14.269531 -22.109375 14.03125 -22.546875 C 13.925781 -22.671875 13.789062 -22.78125 13.625 -22.875 C 13.46875 -22.976562 13.289062 -23.050781 13.09375 -23.09375 C 12.226562 -23.09375 11.441406 -22.925781 10.734375 -22.59375 C 10.023438 -22.257812 9.347656 -21.851562 8.703125 -21.375 Z M 8.703125 -21.375 "/></g></g></g><g clip-path="url(#3230e96869)"><path fill="#000000" d="M 288.289062 234.929688 C 279.054688 232.757812 269.699219 231.113281 260.28125 229.984375 C 250.6875 228.832031 241.042969 228.1875 231.382812 227.894531 C 221.933594 227.601562 212.476562 227.675781 203.027344 227.992188 C 193.4375 228.3125 183.855469 228.878906 174.28125 229.574219 C 164.785156 230.261719 155.292969 231.066406 145.820312 232.019531 C 144.425781 232.160156 143.035156 232.292969 141.640625 232.429688 C 140.320312 232.558594 140.601562 234.601562 141.917969 234.496094 C 151.550781 233.722656 161.183594 232.949219 170.820312 232.234375 C 180.304688 231.527344 189.800781 230.941406 199.308594 230.589844 C 208.75 230.238281 218.203125 230.109375 227.648438 230.3125 C 237.179688 230.519531 246.707031 231.09375 256.183594 232.121094 C 260.660156 232.605469 265.125 233.191406 269.574219 233.890625 C 260.582031 233.457031 251.585938 233.105469 242.585938 232.933594 C 227.53125 232.644531 212.445312 232.875 197.441406 234.148438 C 188.980469 234.867188 180.542969 235.933594 172.171875 237.382812 C 170.898438 237.601562 171.238281 239.777344 172.527344 239.667969 C 185.3125 238.578125 198.144531 238.035156 210.976562 238.023438 C 223.734375 238.011719 236.484375 238.527344 249.203125 239.554688 C 252.789062 239.84375 256.371094 240.164062 259.949219 240.53125 C 261.691406 240.710938 263.433594 240.890625 265.171875 241.085938 C 267.125 241.300781 269.097656 241.429688 271.046875 241.679688 C 272.535156 241.867188 272.980469 239.542969 271.488281 239.351562 C 269.730469 239.128906 267.992188 238.808594 266.234375 238.597656 C 264.636719 238.410156 263.042969 238.226562 261.445312 238.054688 C 258.246094 237.707031 255.042969 237.410156 251.835938 237.136719 C 245.53125 236.601562 239.210938 236.214844 232.890625 235.957031 C 226.410156 235.695312 219.925781 235.5625 213.445312 235.5625 C 214.878906 235.507812 216.320312 235.460938 217.757812 235.417969 C 232.679688 235.003906 247.621094 235.425781 262.527344 236.09375 C 270.9375 236.472656 279.339844 236.96875 287.742188 237.4375 C 288.375 237.472656 288.964844 237.0625 289.09375 236.421875 C 289.207031 235.851562 288.914062 235.078125 288.289062 234.929688 " fill-opacity="1" fill-rule="nonzero"/></g><g fill="#231f20" fill-opacity="1"><g transform="translate(154.02118, 219.124664)"><g><path d="M 4.796875 0.25 C 4.046875 0.25 3.390625 0.15625 2.828125 -0.03125 C 2.273438 -0.21875 1.8125 -0.425781 1.4375 -0.65625 C 1 -0.925781 0.628906 -1.234375 0.328125 -1.578125 L 1.984375 -3.234375 C 2.179688 -2.992188 2.421875 -2.78125 2.703125 -2.59375 C 2.929688 -2.445312 3.210938 -2.304688 3.546875 -2.171875 C 3.890625 -2.046875 4.28125 -1.984375 4.71875 -1.984375 C 5.382812 -1.984375 5.867188 -2.109375 6.171875 -2.359375 C 6.472656 -2.617188 6.625 -2.9375 6.625 -3.3125 C 6.625 -3.644531 6.476562 -3.90625 6.1875 -4.09375 C 5.90625 -4.289062 5.546875 -4.46875 5.109375 -4.625 C 4.679688 -4.78125 4.21875 -4.9375 3.71875 -5.09375 C 3.226562 -5.257812 2.765625 -5.476562 2.328125 -5.75 C 1.898438 -6.019531 1.539062 -6.367188 1.25 -6.796875 C 0.96875 -7.222656 0.828125 -7.773438 0.828125 -8.453125 C 0.828125 -8.898438 0.921875 -9.332031 1.109375 -9.75 C 1.304688 -10.164062 1.582031 -10.523438 1.9375 -10.828125 C 2.300781 -11.140625 2.742188 -11.382812 3.265625 -11.5625 C 3.796875 -11.75 4.390625 -11.84375 5.046875 -11.84375 C 5.691406 -11.84375 6.257812 -11.757812 6.75 -11.59375 C 7.238281 -11.425781 7.644531 -11.242188 7.96875 -11.046875 C 8.34375 -10.816406 8.664062 -10.554688 8.9375 -10.265625 L 7.28125 -8.609375 C 7.101562 -8.796875 6.910156 -8.960938 6.703125 -9.109375 C 6.515625 -9.234375 6.285156 -9.347656 6.015625 -9.453125 C 5.753906 -9.554688 5.460938 -9.609375 5.140625 -9.609375 C 4.503906 -9.609375 4.050781 -9.492188 3.78125 -9.265625 C 3.519531 -9.046875 3.390625 -8.773438 3.390625 -8.453125 C 3.390625 -8.117188 3.53125 -7.851562 3.8125 -7.65625 C 4.101562 -7.46875 4.460938 -7.296875 4.890625 -7.140625 C 5.328125 -6.984375 5.789062 -6.820312 6.28125 -6.65625 C 6.78125 -6.488281 7.242188 -6.269531 7.671875 -6 C 8.109375 -5.726562 8.46875 -5.378906 8.75 -4.953125 C 9.039062 -4.535156 9.1875 -3.988281 9.1875 -3.3125 C 9.1875 -2.832031 9.085938 -2.378906 8.890625 -1.953125 C 8.691406 -1.523438 8.398438 -1.144531 8.015625 -0.8125 C 7.640625 -0.488281 7.179688 -0.226562 6.640625 -0.03125 C 6.097656 0.15625 5.484375 0.25 4.796875 0.25 Z M 4.796875 0.25 "/></g></g></g><g fill="#231f20" fill-opacity="1"><g transform="translate(174.303784, 219.124664)"><g><path d="M 4.546875 -11.59375 L 7.375 -11.59375 L 11.84375 0 L 9.1875 0 L 8.203125 -2.65625 L 3.71875 -2.65625 L 2.734375 0 L 0.078125 0 Z M 7.375 -4.890625 L 6 -8.6875 L 5.921875 -8.6875 L 4.546875 -4.890625 Z M 7.375 -4.890625 "/></g></g></g><g fill="#231f20" fill-opacity="1"><g transform="translate(196.82127, 219.124664)"><g><path d="M 1.484375 -11.59375 L 3.71875 -11.59375 L 9.359375 -4.390625 L 9.359375 -11.59375 L 11.84375 -11.59375 L 11.84375 0 L 9.609375 0 L 3.96875 -7.203125 L 3.96875 0 L 1.484375 0 Z M 1.484375 -11.59375 "/></g></g></g><g fill="#231f20" fill-opacity="1"><g transform="translate(220.745904, 219.124664)"><g><path d="M 1.484375 -11.59375 L 5.71875 -11.59375 C 6.613281 -11.59375 7.429688 -11.441406 8.171875 -11.140625 C 8.921875 -10.835938 9.566406 -10.425781 10.109375 -9.90625 C 10.660156 -9.382812 11.085938 -8.769531 11.390625 -8.0625 C 11.691406 -7.351562 11.84375 -6.597656 11.84375 -5.796875 C 11.84375 -4.992188 11.691406 -4.238281 11.390625 -3.53125 C 11.085938 -2.820312 10.660156 -2.207031 10.109375 -1.6875 C 9.566406 -1.164062 8.921875 -0.753906 8.171875 -0.453125 C 7.429688 -0.148438 6.613281 0 5.71875 0 L 1.484375 0 Z M 5.71875 -2.3125 C 6.238281 -2.3125 6.710938 -2.398438 7.140625 -2.578125 C 7.578125 -2.753906 7.953125 -3 8.265625 -3.3125 C 8.585938 -3.625 8.835938 -3.988281 9.015625 -4.40625 C 9.191406 -4.832031 9.28125 -5.296875 9.28125 -5.796875 C 9.28125 -6.296875 9.191406 -6.753906 9.015625 -7.171875 C 8.835938 -7.597656 8.585938 -7.96875 8.265625 -8.28125 C 7.953125 -8.59375 7.578125 -8.835938 7.140625 -9.015625 C 6.710938 -9.191406 6.238281 -9.28125 5.71875 -9.28125 L 3.96875 -9.28125 L 3.96875 -2.3125 Z M 5.71875 -2.3125 "/></g></g></g><g fill="#231f20" fill-opacity="1"><g transform="translate(243.925566, 219.124664)"><g><path d="M 1.484375 -11.59375 L 3.96875 -11.59375 L 3.96875 -2.3125 L 9.359375 -2.3125 L 9.359375 0 L 1.484375 0 Z M 1.484375 -11.59375 "/></g></g></g><g fill="#231f20" fill-opacity="1"><g transform="translate(264.208166, 219.124664)"><g><path d="M 1.484375 -11.59375 L 3.96875 -11.59375 L 3.96875 0 L 1.484375 0 Z M 1.484375 -11.59375 "/></g></g></g><g fill="#231f20" fill-opacity="1"><g transform="translate(280.26935, 219.124664)"><g><path d="M 1.484375 -11.59375 L 3.71875 -11.59375 L 9.359375 -4.390625 L 9.359375 -11.59375 L 11.84375 -11.59375 L 11.84375 0 L 9.609375 0 L 3.96875 -7.203125 L 3.96875 0 L 1.484375 0 Z M 1.484375 -11.59375 "/></g></g></g></svg>